# xmcd
#
# Track frame offsets:
#	150
#	11192
#	23732
#	37838
#	51392
#	63943
#	78826
#	90491
#	102450
#	114174
#	125651
#	139112
#	151091
#	165316
#	177943
#	190815
#	204234
#	215403
#	226846
#	239981
#	252531
#	262844
#	272486
#	283641
#	294958
#
# Disc length: 4071 seconds
#
# Revision: 0
# Processed by: cddbd v1.5.2PL0 Copyright (c) Steve Scherf et al.
# Submitted via: audiograbber 1.83.01
#
DISCID=530fe519
DTITLE=Guy Lombardo - Into the Fifties ~ cd 1
DYEAR=2007
DGENRE=
TTITLE0=Because of you
TTITLE1=Young at heart
TTITLE2=The Gypsy
TTITLE3=Harbor lights
TTITLE4=Red roses far a blue lady
TTITLE5=Dearie
TTITLE6=All my love
TTITLE7=Oh baby mine I get so lonely
TTITLE8=I wonder I wonder I wonder
TTITLE9=Always
TTITLE10=Auf Wiederseh'n Sweetheart
TTITLE11=Tennessee Waltz
TTITLE12=Blue Tango
TTITLE13=Sing to me guitar
TTITLE14=Come with me my honey
TTITLE15=Honest and Truly
TTITLE16=La Vie En Rose
TTITLE17=The Coconut Song
TTITLE18=When the saints go marching in
TTITLE19=Let's have a Tiddley at the milk bar
TTITLE20=Hot time in the old town tonight
TTITLE21=Hey mister Banjo
TTITLE22=Marty
TTITLE23=our melody
TTITLE24=You couldn't help but be wonderful
EXTD=
EXTT0=
EXTT1=
EXTT2=
EXTT3=
EXTT4=
EXTT5=
EXTT6=
EXTT7=
EXTT8=
EXTT9=
EXTT10=
EXTT11=
EXTT12=
EXTT13=
EXTT14=
EXTT15=
EXTT16=
EXTT17=
EXTT18=
EXTT19=
EXTT20=
EXTT21=
EXTT22=
EXTT23=
EXTT24=
PLAYORDER=
